inDegrees=yes
name=ik_S47_A11_T02
DataType=double
version=3
OpenSimVersion=4.3-2021-08-27-4bc7ad9
endheader
time	pelvis_tilt	pelvis_list	pelvis_rotation	pelvis_tx	pelvis_ty	pelvis_tz	hip_flexion_r	hip_adduction_r	hip_rotation_r	knee_angle_r	knee_angle_r_beta	ankle_angle_r	subtalar_angle_r	mtp_angle_r	hip_flexion_l	hip_adduction_l	hip_rotation_l	knee_angle_l	knee_angle_l_beta	ankle_angle_l	subtalar_angle_l	mtp_angle_l	lumbar_extension	lumbar_bending	lumbar_rotation	arm_flex_r	arm_add_r	arm_rot_r	elbow_flex_r	pro_sup_r	wrist_flex_r	wrist_dev_r	arm_flex_l	arm_add_l	arm_rot_l	elbow_flex_l	pro_sup_l	wrist_flex_l	wrist_dev_l
10.29999999999987	0.3912329880929814	-0.5409379027821601	35.51191294542453	0	0.9399999999999999	0	39.04320239498934	-9.920896092747068	-9.7088051448185	46.06960471616633	0.8040662873894102	0	0	0	39.04320239498934	-9.920896092747068	-9.7088051448185	46.06960471616633	0.8040662873894102	0	0	0	0.244280873289603	-0.6835415118092726	20.17563009036845	46.91657614222816	-28.37652775052636	5.792647023960892	7.715990694242511	61.29145638613627	0	0	13.50910526419341	-6.55837699338118	-4.79123999314604	8.568221090982361	127.7583331928152	0	0
10.31999999999987	0.2249297461072161	-0.5205472465716884	35.00380782477272	0	0.9399999999999999	0	39.09172922808101	-9.922415210789707	-9.71296062465437	46.13408850940007	0.8051917418955141	0	0	0	39.09172922808101	-9.922415210789707	-9.71296062465437	46.13408850940007	0.8051917418955141	0	0	0	0.1229480222292916	-0.5689415841936203	20.08679592203125	42.41386159863618	-27.45558047759651	4.11803261049044	7.147962283464358	62.22480922774891	0	0	13.30558592810969	-6.487854249074812	-5.030761331633491	8.626934854083901	127.9892077686273	0	0
10.33999999999987	0.08435502076216932	-0.4890182897258947	34.51973777675565	0	0.9399999999999999	0	39.1597098770496	-9.924532549351911	-9.718769314572194	46.22405418609467	0.8067619391676196	0	0	0	39.1597098770496	-9.924532549351911	-9.718769314572194	46.22405418609467	0.8067619391676196	0	0	0	0.02671986987189155	-0.4505766885298251	19.96947491952433	38.27617494080484	-26.36290301176821	2.724332603812743	8.77806997660992	62.77737454030792	0	0	13.07877112964234	-6.483175442195174	-5.30696192519888	8.883519784986685	127.5895649446755	0	0
10.35999999999987	-0.03759987570078333	-0.4088340610031174	34.05768363497463	0	0.9399999999999999	0	39.19559134138166	-9.92563832844982	-9.721817089173113	46.27150192078064	0.8075900583605026	0	0	0	39.19559134138166	-9.92563832844982	-9.721817089173113	46.27150192078064	0.8075900583605026	0	0	0	-0.02667960714884435	-0.3171441880606337	19.80095441979686	34.33444650074628	-24.8624585697865	1.32496316831946	6.079992722233341	64.32692678585092	0	0	12.81864153279293	-6.437211134365115	-5.605190608765578	8.727602071084311	128.4503651056295	0	0
10.37999999999987	-0.07872717483930752	-0.3512429824325201	33.70282957213047	0	0.9399999999999999	0	39.25147163594603	-9.927305724028946	-9.726476098981596	46.34643886024438	0.8088979546855124	0	0	0	39.25147163594603	-9.927305724028946	-9.726476098981596	46.34643886024438	0.8088979546855124	0	0	0	-0.02471774585086754	-0.246029367095806	19.85592341697059	30.52316969761129	-23.52346315761705	-0.8138812297248125	7.389183494258129	65.41051799996404	0	0	12.57969182318757	-6.461814863701225	-5.533726867558828	8.765287547761307	128.720806234628	0	0
10.39999999999987	-0.1850583647314521	-0.2547629852086739	33.218964279134	0	0.9399999999999999	0	39.28935546227608	-9.92844036080964	-9.7296414476143	46.39694327902901	0.8097794230801104	0	0	0	39.28935546227608	-9.92844036080964	-9.7296414476143	46.39694327902901	0.8097794230801104	0	0	0	-0.06063953091693869	-0.1039539246438385	19.75319048430479	27.29344779667392	-21.96486530027495	-2.579075000878188	6.697497321807169	67.1529242571999	0	0	12.36531409008309	-6.352930851192743	-5.636197574739734	8.739007029376188	128.9072261279517	0	0
10.41999999999987	-0.4398943754429771	-0.01279085372795173	32.06778686416031	0	0.9399999999999999	0	39.35290925023566	-9.930294103830626	-9.734873809043625	46.48235825531116	0.8112701956467467	0	0	0	39.35290925023566	-9.930294103830626	-9.734873809043625	46.48235825531116	0.8112701956467467	0	0	0	-0.1405612811966049	0.2609303433930112	19.41648119707324	21.80155107338248	-18.48558486508478	-5.474938208175699	5.05524873681411	70.60783039983357	0	0	12.01873058233513	-5.967004984805959	-6.565882726418092	8.733687664596374	129.011648505473	0	0
10.43999999999987	-0.5362868901026281	0.1357078805759977	31.51622300781244	0	0.9399999999999999	0	39.3836828775333	-9.931201930970163	-9.737423316293745	46.52335277801555	0.8119856850432219	0	0	0	39.3836828775333	-9.931201930970163	-9.737423316293745	46.52335277801555	0.8119856850432219	0	0	0	-0.1456947031753164	0.4386044124833235	19.23673925522829	19.24161276461369	-16.67561156343399	-6.725879409723998	4.396395966035993	72.10439336159385	0	0	11.75404623144677	-5.757064865135224	-6.53395986871997	8.728963897262755	129.0520078055735	0	0
10.45999999999987	-0.614040822447251	0.271352412246955	30.86155967593245	0	0.9399999999999999	0	39.41740223797311	-9.932199719580565	-9.74022194717492	46.56810363440964	0.812766734830386	0	0	0	39.41740223797311	-9.932199719580565	-9.74022194717492	46.56810363440964	0.812766734830386	0	0	0	-0.1397962742898309	0.5972418597382919	19.18504346540757	16.82086475783356	-14.91614704801445	-7.852050496215182	5.248100752093651	73.44622960441841	0	0	11.57307960845809	-5.44578207587866	-5.393502037163085	8.814580537481062	129.111616069186	0	0
10.47999999999987	-0.6503694187340417	0.3350615404563776	30.52305015735834	0	0.9399999999999999	0	39.44865855318002	-9.93311642656168	-9.742804641920442	46.60952455271337	0.8134896662339856	0	0	0	39.44865855318002	-9.93311642656168	-9.742804641920442	46.60952455271337	0.8134896662339856	0	0	0	-0.1390146137138404	0.673266276043918	19.14822372105399	14.53156542363421	-12.86562593934677	-8.957454063450326	4.553856091767909	74.37536088842066	0	0	11.55466022446429	-5.224282143852133	-4.731053471685676	8.89224736735288	128.9430518709926	0	0
10.49999999999986	-0.6955803907101171	0.4468944468102297	30.00661355690609	0	0.9399999999999999	0	39.45147932423142	-9.933234210954687	-9.743095437270293	46.61241653409093	0.8135401408309303	0	0	0	39.45147932423142	-9.933234210954687	-9.743095437270293	46.61241653409093	0.8135401408309303	0	0	0	-0.1189724267948711	0.7877597454057392	18.96967152150302	14.5336711520188	-12.54671104691602	-8.1396613718683	1.948786372337234	74.36244603352618	0	0	11.36606299393561	-5.136674187640296	-5.453966970387331	9.189971069613785	129.6051246302396	0	0
10.51999999999986	-0.70059261485839	0.5584062938019817	29.52360279047772	0	0.9399999999999999	0	39.48359286030603	-9.934149490700797	-9.745706681009359	46.65539918790827	0.8142903296612878	0	0	0	39.48359286030603	-9.934149490700797	-9.745706681009359	46.65539918790827	0.8142903296612878	0	0	0	-0.06707460447886958	0.8906234082738055	18.76553062275095	12.37765377441786	-10.5074889452637	-8.659367047218968	1.518378522229654	75.23664507778766	0	0	11.2836837839195	-5.020680415955394	-5.27256036065807	8.989087374883873	128.764907280229	0	0
10.53999999999986	-0.6616251880453641	0.7092933637617566	29.11695207343293	0	0.9399999999999999	0	39.51620569114836	-9.935073213087025	-9.748350994449369	46.69890350020103	0.8150496231496125	0	0	0	39.51620569114836	-9.935073213087025	-9.748350994449369	46.69890350020103	0.8150496231496125	0	0	0	0.04263289614001923	1.002874714091888	18.51149011795883	10.2846542102861	-8.641816915035994	-9.181633443165587	1.153936213477267	76.48273184194143	0	0	10.93905997201889	-4.957176437259306	-5.938964590815069	9.317974732767691	129.2486510559667	0	0
10.55999999999986	-0.5623939985951245	0.8625504349055562	28.62039415830762	0	0.9399999999999999	0	39.51846927090411	-9.935166470165104	-9.748582739343753	46.70121947256452	0.8150900444927405	0	0	0	39.51846927090411	-9.935166470165104	-9.748582739343753	46.70121947256452	0.8150900444927405	0	0	0	0.2051405878703899	1.088028451512357	18.39354961929019	9.99833801044679	-8.407187480870945	-8.554052395203215	0.1596553440928206	76.79320016712458	0	0	11.01154261519789	-4.844475286088322	-5.158395303487035	9.131969387722606	128.3664910953039	0	0
10.57999999999986	-0.5363058601017359	0.9459176322910633	27.98313243721698	0	0.9399999999999999	0	39.56767249171718	-9.93654682468741	-9.752549335291961	46.76711867880307	0.8162402026160539	0	0	0	39.56767249171718	-9.93654682468741	-9.752549335291961	46.76711867880307	0.8162402026160539	0	0	0	0.2690546571567711	1.156506115269996	18.40594373761671	6.951722843298423	-5.940074234547714	-10.25757368074899	1.341701820984191	79.54418953605622	0	0	11.05477011898165	-4.724699732637512	-5.068754089077406	9.2341838379131	128.1277849344224	0	0
10.59999999999986	-0.6454390415965755	0.8910537490624204	27.52964556442037	0	0.9399999999999999	0	39.6185896980836	-9.937931923927959	-9.756588112034986	46.8356021801528	0.8174354651979008	0	0	0	39.6185896980836	-9.937931923927959	-9.756588112034986	46.8356021801528	0.8174354651979008	0	0	0	0.148972460719656	1.160207730903601	18.13677111781476	4.803551904674762	-4.019006368373969	-9.627649873301294	1.921511273347201	80.46747374151698	0	0	11.4319092012541	-4.627076447795182	-5.010479372280184	9.399279383596852	127.8260374611101	0	0
